 <svg version="1.0" xmlns="http://www.w3.org/2000/svg" width="700.000000pt" height="682.000000pt" viewBox="0 0 700.000000 682.000000" preserveAspectRatio="xMidYMid meet">
<metadata>
Created by potrace 1.12, written by Peter Selinger 2001-2015
</metadata>
<g transform="translate(0.000000,682.000000) scale(0.100000,-0.100000)" fill="#000000" stroke="none">
<path d="M0 3410 l0 -3410 3500 0 3500 0 0 3410 0 3410 -3500 0 -3500 0 0
-3410z m3883 3201 c16 -6 86 -16 155 -22 247 -21 550 -102 779 -210 238 -111
250 -118 231 -130 -8 -5 -3 -8 14 -6 15 1 28 -2 29 -8 4 -15 45 -45 63 -45 9
0 16 -4 16 -8 0 -5 43 -30 95 -56 52 -26 101 -57 110 -69 8 -12 15 -19 15 -15
0 4 14 -7 30 -24 17 -16 37 -28 44 -25 8 3 21 -4 30 -17 19 -29 160 -136 179
-136 8 0 20 -7 27 -15 15 -18 26 -19 46 -2 39 31 64 61 64 78 0 10 6 22 13 26
7 4 27 28 44 53 17 25 55 68 86 95 75 68 80 72 119 88 21 9 69 53 121 113 48
55 101 113 118 129 17 17 43 45 56 63 30 38 61 46 42 10 -22 -43 -155 -204
-381 -465 -126 -144 -228 -266 -228 -272 0 -5 57 -68 128 -138 205 -206 418
-509 501 -713 8 -19 29 -67 46 -106 18 -39 38 -88 45 -110 7 -21 15 -43 19
-49 3 -5 4 -18 2 -29 -1 -10 2 -15 7 -12 10 6 19 -28 38 -136 3 -21 10 -36 14
-33 4 2 12 -7 18 -20 7 -15 8 -25 2 -25 -6 0 -10 8 -10 18 0 13 -2 14 -9 3 -5
-8 -3 -27 5 -47 8 -18 14 -44 15 -56 1 -22 1 -22 9 2 7 24 7 23 15 -13 4 -20
11 -40 16 -43 5 -3 9 -14 9 -25 0 -30 -16 -14 -24 22 -3 18 -9 30 -12 26 -3
-3 1 -30 10 -60 20 -69 64 -323 77 -447 15 -137 22 -556 10 -594 -5 -17 -12
-53 -16 -81 -25 -207 -100 -539 -151 -670 -28 -72 -117 -265 -121 -262 -5 5
44 148 61 177 8 14 24 64 36 110 11 47 24 94 29 105 13 31 69 298 85 410 54
366 32 816 -59 1200 -51 216 -164 517 -271 720 -121 231 -324 509 -520 714
l-80 84 -153 -186 c-84 -103 -158 -187 -165 -187 -12 0 -165 -156 -190 -195
-9 -14 -23 -25 -31 -25 -8 0 -15 -9 -15 -20 0 -14 5 -18 18 -13 21 8 24 12
-127 -167 -165 -194 -304 -345 -318 -345 -7 0 -27 -15 -46 -33 -18 -18 -36
-30 -39 -26 -4 3 -54 -43 -112 -102 -58 -60 -101 -111 -96 -114 5 -3 -33 -43
-86 -89 -52 -45 -99 -92 -103 -104 -11 -28 -37 -51 -49 -43 -12 7 -36 -20 -28
-32 10 -16 -113 -142 -139 -142 -14 0 -34 -13 -48 -30 -14 -17 -30 -30 -36
-30 -5 0 -18 -11 -29 -25 -11 -13 -39 -40 -62 -60 -23 -20 -64 -66 -90 -103
-26 -37 -65 -83 -86 -103 -75 -68 -76 -60 7 -148 41 -42 96 -103 123 -135 35
-41 51 -54 57 -45 4 7 5 17 3 21 -14 22 11 2 62 -52 59 -62 80 -74 71 -40 -7
27 -1 25 37 -12 18 -18 46 -46 64 -61 27 -25 92 -110 92 -123 0 -17 -26 6 -79
71 -34 41 -70 75 -79 75 -12 0 -7 -10 19 -34 20 -18 39 -40 43 -47 18 -38 68
-95 135 -154 70 -62 115 -88 76 -45 -10 11 -16 22 -13 25 3 3 31 -22 62 -55
32 -33 60 -60 62 -60 13 0 85 -69 169 -160 66 -73 57 -57 -22 38 -29 35 -53
71 -53 80 0 19 -6 25 98 -100 100 -120 220 -281 231 -311 5 -13 54 -67 110
-122 56 -55 101 -106 101 -115 0 -27 78 -107 126 -129 41 -20 161 -133 201
-191 8 -11 40 -44 73 -76 32 -31 69 -74 80 -97 l21 -40 -25 17 c-38 24 -32 1
7 -26 17 -12 43 -35 55 -50 22 -26 51 -40 37 -18 -8 14 8 13 22 -1 6 -6 9 -18
6 -26 -3 -7 -2 -13 3 -12 23 4 39 -4 84 -47 54 -51 106 -126 120 -172 7 -26 6
-30 -8 -24 -9 3 20 -32 65 -79 113 -116 213 -229 213 -239 0 -18 -30 -2 -82
41 -29 25 -73 59 -98 77 -65 44 -880 856 -880 876 0 8 -22 39 -50 68 -27 29
-50 58 -50 65 0 7 -16 24 -35 39 -19 14 -33 29 -31 33 3 4 -4 7 -15 7 -12 0
-18 -5 -14 -13 8 -23 -27 2 -84 60 -29 30 -51 60 -47 65 3 6 -6 23 -20 39
l-26 28 16 -27 c9 -16 12 -28 7 -28 -15 0 -273 274 -261 278 5 2 -6 22 -25 45
-20 23 -31 43 -26 45 6 2 -23 45 -64 96 -41 51 -75 98 -75 103 0 14 -171 182
-193 189 -11 3 -94 79 -186 169 -91 89 -180 175 -198 189 -18 15 -48 49 -68
77 -21 27 -47 55 -58 61 -17 9 -14 2 11 -26 42 -48 41 -59 -2 -17 -38 37 -48
35 -72 -12 -9 -18 -60 -77 -113 -133 -53 -55 -120 -128 -149 -162 -30 -35 -68
-70 -85 -79 -18 -8 -48 -30 -69 -47 -20 -17 -57 -48 -82 -69 -48 -40 -75 -77
-57 -77 6 0 26 14 46 31 19 17 35 27 35 22 0 -6 -9 -18 -21 -29 -37 -34 -116
-138 -124 -164 -4 -14 -50 -70 -104 -125 -96 -100 -87 -98 22 5 64 61 99 81
52 31 -123 -132 -381 -371 -400 -371 -13 0 -105 -95 -130 -134 -45 -73 -141
-153 -121 -101 11 29 -13 15 -47 -28 -37 -47 -97 -150 -97 -168 0 -16 -58 -87
-146 -179 -40 -41 -96 -102 -125 -135 -29 -33 -57 -62 -63 -64 -6 -2 -22 -13
-36 -25 -14 -11 -19 -14 -12 -6 6 8 12 21 12 29 0 10 -10 6 -30 -14 -16 -16
-28 -30 -26 -32 2 -2 -12 -20 -31 -41 -19 -20 -39 -46 -45 -57 -11 -20 -11
-20 11 -1 11 11 21 15 21 10 0 -12 -30 -56 -44 -66 -14 -9 12 -56 43 -77 13
-9 34 -26 48 -38 13 -13 27 -23 31 -23 4 0 16 -11 26 -25 10 -13 22 -22 27
-19 11 6 47 -13 73 -39 l21 -21 -25 15 c-14 9 -34 19 -45 22 -15 5 -13 1 9
-18 15 -15 26 -28 23 -31 -5 -5 -45 21 -123 80 -134 102 -148 110 -151 99 -3
-7 -9 -13 -15 -13 -5 0 -34 -20 -65 -45 -30 -25 -60 -45 -67 -45 -7 0 -25 -14
-40 -31 -27 -30 -51 -34 -26 -4 7 8 8 15 3 15 -7 0 -122 -133 -151 -175 -4 -6
-18 -18 -33 -27 -14 -9 -41 -36 -60 -61 -39 -51 -89 -87 -89 -64 0 14 33 65
129 201 27 38 98 125 158 194 59 68 111 130 115 137 5 8 -29 48 -95 112 -56
55 -121 124 -144 154 -23 30 -56 69 -72 88 -17 18 -31 37 -31 40 0 4 -14 22
-31 40 -38 42 -109 136 -109 144 0 4 -21 39 -47 79 -26 40 -75 130 -111 201
-35 71 -66 127 -68 124 -4 -4 60 -143 81 -177 12 -19 35 -83 31 -87 -7 -7
-118 222 -169 347 -124 305 -207 653 -227 950 -15 237 13 780 41 780 5 0 9 15
10 33 1 48 24 149 32 141 4 -4 4 7 1 24 -5 22 -3 32 6 32 7 0 10 6 7 14 -3 8
-2 27 4 43 5 15 32 98 60 183 27 85 57 165 65 178 9 13 16 37 16 53 1 16 5 29
9 29 5 0 51 85 103 188 51 104 105 206 118 228 13 21 27 46 30 54 21 57 284
402 392 513 31 33 56 62 56 66 0 4 -14 20 -31 37 -17 16 -54 58 -82 94 -28 36
-54 67 -58 70 -3 3 -13 20 -22 39 l-17 35 23 -22 c28 -27 37 -28 38 -4 0 13 2
14 6 2 7 -20 135 -150 147 -150 6 0 20 -12 31 -26 l21 -27 73 63 c40 34 74 60
76 58 2 -2 -22 -33 -55 -68 -32 -36 -56 -67 -54 -69 2 -2 43 32 91 76 108 97
222 188 322 256 42 28 98 68 124 89 27 21 54 38 60 38 6 0 32 18 58 40 29 24
53 38 63 34 8 -3 41 9 73 28 32 19 76 44 98 55 22 11 65 33 95 50 30 17 82 39
115 48 33 10 67 21 75 26 27 14 133 46 225 67 163 38 228 49 525 86 68 8 495
-2 523 -13z m2327 -1927 c-67 -68 -212 -178 -312 -235 -195 -112 -303 -169
-322 -170 -46 -2 -121 -34 -131 -56 -5 -13 -23 -29 -39 -37 -27 -13 -30 -19
-28 -58 1 -24 -2 -50 -8 -58 -8 -12 -10 -10 -11 10 -1 14 -1 37 0 53 3 41 -16
33 -23 -10 -23 -130 -13 -204 19 -159 11 15 14 11 20 -26 4 -24 8 -82 9 -130
1 -88 15 -114 17 -30 0 51 12 91 21 76 8 -13 -25 -193 -41 -222 -6 -12 -11
-49 -10 -81 2 -64 -4 -83 -26 -74 -10 3 -15 -1 -15 -12 0 -20 30 -87 43 -96 4
-3 6 -55 2 -115 -3 -60 -7 -149 -9 -199 -3 -119 -4 -127 -16 -120 -5 3 -10 0
-10 -9 0 -8 -5 -16 -10 -18 -6 -2 -11 -42 -12 -90 -3 -133 -21 -144 -53 -33
-20 69 -41 566 -25 595 12 22 16 103 6 119 -5 7 -14 10 -21 8 -17 -7 -32 250
-16 266 6 6 11 18 11 27 0 10 7 30 14 46 8 16 17 45 19 65 5 41 15 62 27 54
12 -8 18 23 15 75 -4 57 -5 60 -15 30 -8 -24 -8 -24 -9 7 -1 17 -5 35 -11 38
-5 3 -10 2 -10 -3 0 -18 -92 -40 -177 -42 -18 0 -54 -7 -80 -15 -60 -18 -73
-19 -73 -1 0 17 -52 9 -63 -10 -4 -7 -23 -16 -42 -20 -19 -3 -35 -11 -35 -16
0 -6 11 -7 26 -4 33 9 24 -9 -16 -29 -15 -8 -42 -28 -58 -45 -34 -34 -49 -37
-78 -15 -10 8 -29 15 -41 15 -45 0 -21 29 62 75 47 25 90 43 96 40 11 -8 94
29 122 53 20 18 23 33 3 26 -8 -3 -17 -1 -20 4 -3 6 8 15 26 21 18 6 44 19 58
29 14 9 52 27 85 38 l60 22 -60 -4 c-41 -3 -54 -2 -40 5 29 12 200 41 249 41
23 0 65 11 94 25 62 29 94 33 86 10 -12 -31 35 -8 91 45 49 47 243 135 278
126 15 -3 29 1 39 12 29 30 46 41 53 34 4 -4 5 -1 3 7 -4 21 99 81 138 81 17
0 42 8 55 19 55 43 145 100 159 100 8 1 -10 -24 -40 -55z m-1440 -604 c0 -11
-101 -63 -108 -56 -7 8 10 27 42 47 34 21 66 25 66 9z m1940 -46 c0 -8 -4 -12
-10 -9 -5 3 -10 13 -10 21 0 8 5 12 10 9 6 -3 10 -13 10 -21z m9 -61 c6 -22 7
-42 1 -52 -8 -13 -10 -11 -10 9 -1 14 -3 37 -5 53 -5 38 2 34 14 -10z m-2990
-1288 c7 -7 -17 -8 -67 -4 -73 5 -106 2 -162 -16 l-25 -7 27 21 c15 12 47 25
70 29 45 8 140 -6 157 -23z m15 -56 c22 -16 45 -29 52 -29 21 0 36 -63 23 -96
l-11 -29 -16 49 c-17 48 -18 49 -64 53 -25 2 -49 -1 -53 -7 -8 -13 -52 -13
-60 -1 -3 5 7 12 22 14 18 3 11 5 -18 6 -32 1 -49 -3 -52 -13 -3 -8 -40 -33
-82 -56 -61 -34 -83 -41 -108 -36 -26 5 -35 2 -54 -21 -22 -26 -23 -26 -18 -5
9 31 -9 28 -52 -12 -21 -18 -53 -41 -70 -50 -18 -9 -33 -22 -33 -30 0 -15 -93
-96 -112 -96 -7 -1 -31 -9 -53 -20 -22 -10 -43 -16 -46 -14 -4 2 -23 -16 -44
-41 -38 -47 -42 -50 -63 -36 -10 6 -9 16 9 45 14 24 24 33 29 26 6 -9 13 -9
29 1 19 13 25 23 19 32 -2 2 12 21 30 42 29 32 182 123 182 108 0 -3 19 14 43
38 45 47 137 116 171 129 12 4 36 21 54 38 31 29 72 48 72 33 0 -5 -10 -13
-22 -20 -18 -9 -18 -10 -3 -5 11 3 34 10 50 14 17 4 41 12 55 18 14 6 54 8 90
5 50 -5 74 -12 104 -34z m73 -193 c-18 -78 -19 -86 -3 -86 14 0 36 54 36 88 0
6 5 12 10 12 6 0 10 -6 10 -14 0 -31 -53 -151 -88 -199 -56 -77 -72 -104 -65
-111 4 -3 37 -6 75 -6 81 0 158 -24 223 -71 48 -35 66 -74 20 -43 -14 9 -39
18 -56 20 -30 4 -29 3 17 -29 26 -17 67 -60 91 -95 42 -60 43 -65 46 -145 2
-81 1 -84 -49 -188 -34 -69 -71 -127 -108 -168 -31 -35 -56 -67 -56 -71 0 -14
-98 -91 -122 -95 -13 -3 -24 -9 -26 -15 -2 -6 -18 -18 -35 -26 l-32 -16 29 31
c39 41 29 48 -15 11 -19 -16 -31 -29 -27 -30 4 0 0 -9 -9 -19 -9 -11 -21 -18
-25 -15 -11 7 -45 -23 -61 -51 -9 -18 -9 -19 6 -6 10 7 17 9 17 4 0 -19 -147
-161 -188 -182 -24 -12 -65 -24 -90 -27 -26 -2 -64 -6 -84 -8 -36 -4 -203 -74
-242 -102 -11 -8 -29 -14 -39 -14 -11 0 -48 -20 -83 -45 -34 -25 -71 -48 -81
-52 -10 -3 -27 -13 -37 -22 -19 -16 -19 -16 0 17 19 34 85 94 139 127 17 10
39 27 50 36 11 10 88 53 171 96 160 83 254 146 345 228 89 80 121 108 169 144
150 114 271 274 319 423 7 20 19 42 27 48 21 18 17 65 -11 120 -18 35 -31 50
-45 50 -11 0 -25 9 -32 20 -7 11 -23 20 -35 20 -26 0 -29 -10 -10 -29 10 -12
8 -13 -8 -6 -67 27 -185 11 -312 -41 -45 -19 -88 -32 -95 -29 -17 7 -48 61
-48 84 0 34 -22 82 -35 77 -8 -3 -18 1 -25 8 -8 11 4 26 52 67 34 30 59 46 55
36 -5 -14 -3 -16 12 -8 10 6 24 18 32 27 8 9 26 22 40 28 41 17 269 244 269
266 0 6 5 8 11 4 6 -3 8 -16 6 -28z m-555 -148 c1 -24 0 -74 -1 -113 -2 -77 8
-106 31 -87 22 18 42 -65 35 -146 -7 -74 6 -66 17 11 4 26 12 47 17 47 6 0 8
-8 5 -17 -2 -10 -8 -38 -11 -63 -4 -25 -18 -64 -31 -87 -17 -30 -24 -57 -24
-97 0 -51 -13 -82 -23 -54 -2 7 -8 10 -12 5 -11 -9 21 -77 36 -77 9 0 10 -24
6 -87 -4 -49 -7 -92 -7 -96 0 -5 -9 -5 -20 -2 -19 6 -20 4 -14 -21 4 -15 13
-39 20 -53 22 -42 17 -70 -21 -107 -31 -29 -35 -40 -35 -83 0 -92 -31 -113
-50 -34 -13 56 -18 460 -6 547 7 50 6 58 -7 53 -11 -4 -16 6 -21 40 -9 70 -7
173 4 173 11 0 35 52 45 101 4 19 15 41 25 49 22 19 17 92 -6 83 -9 -3 -14 2
-14 13 0 11 -7 28 -15 38 -17 23 -20 66 -4 66 6 0 22 9 36 20 37 29 43 25 45
-22z m43 -48 c7 -23 -2 -60 -16 -60 -5 0 -9 18 -9 40 0 42 14 54 25 20z m2646
-1207 c13 -16 12 -17 -3 -4 -17 13 -22 21 -14 21 2 0 10 -8 17 -17z m-4390
-29 c13 -14 69 -60 124 -101 95 -71 147 -123 73 -72 -61 42 -236 184 -237 192
-2 15 18 6 40 -19z m3864 -83 c-6 -5 -23 -12 -40 -16 l-30 -6 25 15 c28 17 60
22 45 7z m-2176 -62 c-22 -13 -31 -11 -17 5 7 8 17 12 22 9 4 -3 2 -9 -5 -14z
m-72 -35 c-3 -3 -12 -4 -19 -1 -8 3 -5 6 6 6 11 1 17 -2 13 -5z m-1102 -97
c20 -19 20 -19 -2 -8 -12 6 -25 11 -30 11 -4 -1 17 -14 47 -29 37 -20 57 -25
62 -18 5 8 17 6 40 -5 31 -16 31 -17 8 -17 l-24 -1 22 -16 c13 -9 59 -29 103
-45 44 -16 94 -39 110 -51 23 -17 32 -20 38 -10 8 13 31 8 86 -18 35 -16 249
-74 270 -72 10 0 25 -4 32 -9 6 -6 22 -7 35 -3 20 6 21 5 9 -10 -7 -9 -20 -16
-29 -16 -8 0 -13 -2 -10 -5 2 -3 29 0 59 6 44 9 66 8 119 -6 36 -8 72 -17 80
-18 8 -1 24 -7 35 -13 23 -13 23 -13 355 -18 140 -1 287 1 325 6 39 4 104 11
145 14 41 3 90 10 107 16 18 5 37 7 41 4 5 -3 47 1 93 8 46 8 111 13 144 12
41 -1 71 4 95 16 19 10 42 18 52 18 9 0 20 5 23 10 3 6 12 10 18 10 7 0 6 -4
-3 -11 -12 -8 -10 -9 10 -5 14 3 31 6 39 6 8 0 11 6 7 16 -4 11 5 19 30 30 37
15 61 11 34 -6 -26 -17 30 -12 83 7 36 13 50 14 59 5 16 -16 -19 -44 -45 -36
-22 7 -87 -14 -87 -28 0 -6 -9 -8 -19 -5 -11 2 -64 -9 -118 -26 -54 -16 -110
-30 -125 -29 -16 1 -28 -3 -28 -8 0 -6 6 -10 13 -10 8 0 7 -4 -3 -10 -8 -5
-33 -10 -54 -10 -21 0 -73 -6 -115 -14 -97 -18 -228 -36 -263 -36 -15 0 -33
-7 -42 -15 -16 -16 -36 -20 -36 -6 0 4 -11 6 -25 3 -14 -2 -25 -8 -25 -13 0
-5 -15 -9 -33 -9 -18 0 -38 -5 -44 -11 -11 -11 -63 -2 -63 11 0 5 8 11 18 13
9 3 -5 5 -33 5 -27 0 -44 -2 -37 -5 6 -2 12 -9 12 -15 0 -13 -374 -4 -490 12
-71 9 -278 54 -310 67 -8 3 -22 7 -31 9 -64 13 -193 55 -205 67 -4 3 10 3 30
0 45 -7 47 8 4 23 -179 62 -384 148 -503 212 -122 65 -173 100 -127 89 26 -6
28 1 5 20 -16 11 -14 12 12 1 17 -6 39 -20 50 -31z m3105 -27 c0 -5 -5 -10
-11 -10 -5 0 -7 5 -4 10 3 6 8 10 11 10 2 0 4 -4 4 -10z m-183 -85 c-15 -14
-32 -25 -37 -25 -17 0 2 31 24 40 37 15 42 10 13 -15z m-2833 -4 c4 -5 -3 -7
-14 -4 -23 6 -26 13 -6 13 8 0 17 -4 20 -9z m2773 -27 c-3 -3 -12 -4 -19 -1
-8 3 -5 6 6 6 11 1 17 -2 13 -5z m-2621 -60 c17 -14 17 -15 1 -10 -10 3 -23 6
-28 6 -5 0 -9 5 -9 10 0 14 13 12 36 -6z m159 -59 c28 -13 43 -24 35 -24 -8 0
-26 6 -40 14 -14 8 -34 15 -45 15 -11 0 -29 8 -40 17 -19 15 -19 15 10 9 17
-4 53 -18 80 -31z"></path>
<path d="M3240 6481 c-146 -20 -259 -41 -385 -72 -111 -28 -361 -107 -415
-131 -25 -11 -56 -22 -70 -24 -43 -7 -281 -130 -416 -215 -154 -97 -306 -206
-354 -254 -19 -19 -39 -35 -44 -35 -16 0 -76 -51 -76 -64 0 -7 30 -46 66 -87
36 -41 77 -91 90 -111 13 -21 29 -38 35 -38 6 0 63 -49 126 -110 103 -99 147
-133 127 -97 -11 19 5 1 100 -108 48 -55 96 -109 106 -120 11 -12 20 -24 20
-29 0 -4 8 -15 18 -24 10 -10 11 -12 2 -7 -13 9 -13 8 -1 -7 7 -10 19 -18 26
-18 8 0 23 -15 35 -34 11 -19 24 -36 28 -38 4 -2 29 -30 56 -63 27 -33 54 -65
60 -70 6 -6 56 -57 111 -114 73 -76 93 -102 75 -96 -18 5 -5 -13 50 -65 41
-39 91 -82 112 -95 46 -31 72 -56 311 -310 109 -115 256 -264 326 -330 70 -66
136 -133 145 -148 31 -49 78 -97 88 -91 5 3 25 30 43 58 18 28 118 135 221
236 103 102 210 208 237 235 26 28 51 53 55 57 4 4 34 31 67 59 33 29 62 57
64 63 2 6 35 43 72 82 68 71 88 105 51 85 -10 -5 -24 -17 -32 -25 -7 -9 -17
-16 -22 -16 -6 0 8 20 30 44 22 24 45 54 52 66 7 13 23 35 36 49 13 14 24 30
24 36 0 6 40 50 90 99 49 49 88 92 85 94 -3 3 -38 -27 -79 -66 -41 -40 -77
-72 -80 -72 -14 0 15 38 56 75 24 21 77 70 118 109 82 78 223 200 265 229 14
11 64 65 111 122 80 97 103 118 130 120 22 1 107 107 129 159 10 23 78 102
166 193 82 86 149 161 149 167 0 24 -219 198 -377 299 -93 60 -325 183 -372
198 -20 6 -52 20 -71 31 -45 26 -303 111 -451 148 -254 65 -398 82 -704 85
-226 3 -306 0 -415 -14z m410 -101 l25 -8 -27 -1 c-35 -1 -190 -50 -203 -63
-7 -8 -4 -9 8 -4 11 3 31 9 45 12 15 3 43 11 62 18 47 16 245 15 261 -1 10
-11 -4 -13 -71 -14 -53 0 -77 -3 -65 -8 16 -7 12 -10 -23 -16 -23 -4 -49 -13
-57 -21 -7 -8 -34 -17 -59 -20 -28 -4 -56 -16 -72 -30 -14 -13 -39 -31 -57
-40 -18 -10 -50 -32 -71 -50 -29 -25 -49 -34 -75 -34 -45 0 -57 -8 -72 -45
-10 -24 -13 -27 -17 -11 -3 14 -10 17 -33 12 -38 -7 -37 9 1 29 16 8 57 40 91
70 34 30 66 55 71 55 6 0 8 9 5 20 -4 15 2 24 24 36 17 8 53 33 82 54 33 26
72 44 112 53 70 17 82 18 115 7z m312 -77 c21 -21 48 -64 62 -96 22 -48 26
-71 24 -139 -1 -76 -4 -88 -53 -187 -29 -58 -69 -126 -89 -150 -20 -24 -42
-53 -48 -65 l-11 -21 23 20 c28 25 85 110 131 193 18 34 38 62 42 62 23 0 -71
-162 -146 -251 -32 -38 -55 -69 -52 -69 10 0 70 32 75 40 3 4 38 19 79 33 63
22 81 25 122 17 89 -17 165 -73 216 -158 27 -45 28 -53 28 -167 0 -102 -3
-128 -23 -175 -31 -76 -36 -82 -66 -82 -21 0 -31 -9 -46 -39 -11 -21 -20 -45
-20 -53 0 -7 -7 -16 -15 -20 -20 -7 -76 -96 -69 -108 4 -5 -3 -19 -14 -31 -11
-12 -25 -32 -31 -44 -40 -79 -168 -195 -231 -210 -14 -3 -40 -21 -58 -39 -32
-33 -61 -46 -46 -21 11 18 -16 -5 -139 -115 -59 -54 -113 -98 -120 -98 -7 0
-33 -21 -57 -46 -51 -51 -138 -119 -146 -112 -2 3 2 11 11 18 8 7 15 20 15 28
0 16 323 342 462 467 94 85 316 338 364 415 56 90 99 224 90 282 -13 86 -60
133 -164 164 -53 16 -54 16 -155 -17 -56 -18 -113 -44 -128 -56 -14 -13 -35
-23 -47 -23 -26 0 -41 -28 -21 -40 16 -11 20 -7 -66 -62 -90 -57 -134 -55
-149 7 -4 15 -11 22 -20 19 -8 -3 -30 9 -50 26 l-36 32 32 40 c18 22 40 50 48
62 8 13 45 48 82 78 61 50 111 101 196 201 36 42 44 35 10 -9 -13 -15 -17 -25
-11 -21 13 8 65 83 87 125 8 15 26 40 41 56 15 17 34 44 41 61 17 42 20 135 5
163 -15 29 -7 40 15 21 16 -13 16 -12 5 8 -6 12 -17 20 -24 18 -6 -3 -23 5
-37 16 -24 20 -24 20 -2 14 27 -8 28 1 5 28 -24 27 -1 15 55 -30 54 -44 58
-20 6 37 -46 51 -30 53 18 3z m-559 -275 c-2 -35 -9 -74 -14 -88 -5 -14 -10
-50 -12 -80 -2 -46 1 -55 15 -54 13 1 20 -12 28 -53 10 -46 9 -65 -6 -119 -25
-92 -11 -89 16 3 13 43 25 72 28 64 7 -20 -28 -141 -55 -191 -20 -36 -24 -57
-22 -105 1 -33 1 -68 0 -77 -1 -22 -21 -24 -21 -3 0 8 -5 15 -11 15 -18 0 -2
-61 22 -86 17 -19 21 -36 22 -106 0 -45 -3 -105 -7 -133 -4 -27 -2 -74 3 -103
10 -48 5 -119 -7 -108 -3 3 -13 -4 -23 -16 -16 -17 -19 -38 -19 -110 0 -80 -2
-89 -17 -86 -26 5 -51 133 -57 286 -3 68 -10 173 -16 233 -6 60 -8 114 -4 121
5 7 7 25 5 40 -1 15 2 36 8 47 13 23 5 51 -14 51 -18 0 -25 50 -21 150 4 92
13 140 27 140 5 0 9 7 9 16 0 8 6 22 14 30 8 8 22 39 30 69 12 40 20 53 31 49
21 -9 21 72 0 83 -18 11 -30 125 -15 153 9 17 29 25 72 29 14 1 15 -8 11 -61z
m37 -68 c0 -35 -14 -60 -26 -47 -9 9 8 97 17 91 5 -3 9 -23 9 -44z m830 -884
c0 -17 -30 -50 -38 -42 -5 6 25 56 33 56 3 0 5 -6 5 -14z m-560 -596 c-8 -5
-17 -7 -19 -4 -3 3 1 9 9 14 8 5 17 7 19 4 3 -3 -1 -9 -9 -14z m495 -332 c-11
-13 -35 -39 -54 -59 -20 -19 -51 -53 -69 -74 -51 -59 -50 -33 2 34 46 59 112
121 130 121 5 0 1 -10 -9 -22z"></path>
<path d="M3608 6313 c7 -3 16 -2 19 1 4 3 -2 6 -13 5 -11 0 -14 -3 -6 -6z"></path>
<path d="M3396 6285 c-11 -8 -16 -18 -12 -22 3 -4 16 3 29 15 24 25 12 29 -17
7z"></path>
<path d="M3754 5557 l-29 -32 30 25 c17 14 32 26 34 28 2 1 2 4 -1 7 -2 3 -18
-10 -34 -28z"></path>
<path d="M3350 5008 c0 -13 5 -30 10 -38 7 -11 10 -5 10 23 0 20 -4 37 -10 37
-5 0 -10 -10 -10 -22z"></path>
<path d="M4968 6279 c24 -11 49 -18 55 -16 13 5 -29 24 -71 32 -19 4 -15 -1
16 -16z"></path>
<path d="M1355 5554 c-27 -25 -63 -58 -78 -72 -30 -29 -102 -140 -95 -147 2
-3 21 18 42 45 21 28 42 50 47 50 5 0 -31 -51 -79 -112 -136 -175 -239 -342
-336 -543 -72 -147 -91 -189 -101 -225 -4 -14 -11 -29 -14 -35 -4 -5 -13 -29
-21 -52 -7 -24 -17 -43 -21 -43 -5 0 -6 -7 -3 -15 4 -8 2 -15 -4 -15 -5 0 -13
-21 -17 -47 -5 -35 -9 -43 -17 -32 -7 10 -8 6 -3 -14 4 -21 2 -27 -6 -21 -8 5
-10 -1 -7 -19 3 -14 2 -25 -1 -24 -8 3 -10 -15 -3 -31 2 -7 -3 -43 -12 -80
-15 -63 -48 -270 -60 -374 -23 -210 -14 -559 21 -774 9 -54 16 -119 16 -143 0
-24 3 -38 6 -32 8 12 33 -96 33 -136 0 -13 5 -20 10 -16 7 4 8 -7 4 -33 -5
-30 -4 -36 4 -24 9 12 10 8 6 -18 -3 -18 -2 -31 3 -28 5 3 12 -14 16 -39 3
-26 11 -43 16 -39 6 3 7 -4 3 -20 -4 -16 -2 -26 5 -26 6 0 8 -7 5 -15 -4 -8
-1 -15 5 -15 6 0 11 -9 11 -21 0 -11 4 -17 10 -14 6 3 7 -1 4 -10 -4 -8 -2
-21 4 -28 5 -6 20 -41 31 -77 12 -35 33 -81 46 -101 14 -20 28 -53 30 -75 17
-142 370 -652 577 -832 l26 -22 60 67 c33 38 124 147 202 243 190 233 249 300
264 300 7 0 52 42 99 93 48 50 96 101 107 112 24 24 27 50 5 41 -8 -3 -15 -3
-15 0 0 3 37 49 82 102 46 53 92 107 103 120 54 65 257 292 262 292 3 0 2 -8
-2 -17 -3 -10 10 -3 32 18 21 19 50 41 65 48 15 8 64 49 110 93 128 122 147
138 163 138 8 0 15 7 15 15 0 8 9 19 19 24 10 6 31 31 45 56 15 25 49 66 76
91 31 29 50 55 50 69 0 12 22 46 53 79 52 57 56 58 129 65 4 1 8 11 10 24 2
13 10 22 20 21 9 -1 36 18 59 42 l43 44 -120 122 c-66 68 -158 163 -205 213
-46 49 -118 126 -160 170 -42 44 -100 106 -130 138 -30 32 -90 90 -134 130
-44 39 -79 75 -77 79 2 8 -125 138 -184 189 -63 55 -428 434 -464 482 -24 32
-73 91 -108 130 -36 40 -91 106 -123 147 -66 86 -155 174 -184 184 -11 3 -29
19 -40 35 -11 17 -26 32 -35 34 -19 5 -130 129 -130 146 0 19 -13 12 -65 -35z
m49 -925 c4 -19 1 -29 -9 -33 -12 -4 -10 -13 10 -53 25 -48 25 -49 10 -126
-11 -57 -12 -84 -4 -98 5 -11 12 -43 13 -72 2 -29 9 -65 16 -82 6 -16 16 -41
21 -54 9 -23 10 -23 25 -5 14 18 15 17 10 -11 -18 -107 -18 -110 3 -130 12
-10 21 -22 21 -27 0 -34 202 -258 232 -258 7 0 33 5 57 11 52 12 61 6 36 -21
-11 -12 -31 -20 -51 -20 -24 0 -32 -4 -28 -14 4 -11 -7 -13 -63 -9 -109 7
-145 24 -210 94 -76 81 -86 96 -93 138 -4 30 -10 36 -30 36 -20 0 -28 10 -48
64 -21 55 -23 69 -13 96 6 17 11 38 11 47 0 8 9 27 20 41 24 30 26 57 5 57 -8
0 -22 17 -30 38 -16 36 -16 37 9 57 27 22 34 53 15 72 -24 24 -4 193 23 193 5
0 8 9 8 20 0 11 -4 20 -10 20 -17 0 -11 48 8 59 20 11 27 5 36 -30z m896 -348
c0 -11 5 -23 11 -27 7 -4 9 -24 6 -56 -4 -34 -3 -47 5 -42 8 5 9 -14 3 -67 -4
-41 -9 -135 -10 -210 -2 -88 -8 -145 -16 -160 l-13 -24 -6 30 c-3 17 -10 29
-15 27 -10 -2 -12 -94 -5 -267 3 -77 -1 -103 -24 -180 -16 -49 -37 -101 -46
-115 -10 -14 -21 -43 -25 -65 -4 -21 -16 -56 -26 -78 -28 -53 -89 -132 -89
-113 0 8 5 18 10 21 6 3 10 16 10 28 0 20 -2 19 -20 -8 -11 -16 -20 -40 -20
-52 0 -13 -4 -23 -9 -23 -8 0 -51 -78 -51 -93 0 -3 7 -4 17 0 15 6 15 4 0 -23
-8 -16 -30 -58 -48 -94 -17 -36 -51 -87 -75 -114 -24 -26 -44 -53 -44 -58 0
-6 -7 -8 -15 -4 -8 3 -15 1 -15 -5 0 -6 -7 -9 -15 -5 -10 4 -34 -25 -82 -98
-38 -57 -78 -110 -91 -117 -12 -7 -38 -35 -56 -63 -38 -56 -83 -103 -92 -94
-3 3 -1 14 4 25 5 10 19 38 31 63 12 25 42 74 67 110 25 36 86 137 136 225 50
88 111 194 136 235 130 212 220 428 263 625 11 50 27 100 35 113 8 13 19 57
23 98 5 41 14 81 21 89 7 8 9 26 5 44 -3 16 -2 38 4 48 6 12 6 25 1 33 -8 13
-12 12 -24 -5 -14 -18 -15 -15 -9 44 5 49 3 63 -7 59 -7 -2 -44 -46 -84 -98
-75 -99 -91 -112 -99 -83 -4 16 -6 16 -12 -4 -4 -11 -14 -23 -23 -26 -10 -3
-25 -8 -36 -12 -15 -7 -14 -1 9 34 31 47 28 62 -9 37 -40 -26 -41 -19 -3 24
35 38 77 109 77 130 0 5 29 62 65 125 67 117 70 125 58 125 -5 0 -26 -34 -48
-76 -22 -42 -48 -80 -59 -86 -17 -9 -17 -6 6 33 14 24 42 74 62 111 21 38 43
71 50 75 7 5 15 16 19 26 4 12 17 17 43 17 31 0 35 -2 24 -15 -11 -13 -8 -15
20 -15 24 0 31 4 27 14 -6 15 10 23 51 25 16 1 22 -5 22 -18z m-603 -499 c47
-45 52 -67 9 -39 -35 24 -115 110 -116 125 0 13 22 -4 107 -86z m1449 -728
c-11 -7 -22 -11 -25 -8 -3 3 3 12 13 20 11 7 22 11 25 8 3 -3 -3 -12 -13 -20z
m-2121 -1274 c3 -5 1 -10 -4 -10 -6 0 -11 5 -11 10 0 6 2 10 4 10 3 0 8 -4 11
-10z"></path>
<path d="M1685 3680 c3 -5 8 -10 11 -10 2 0 4 5 4 10 0 6 -5 10 -11 10 -5 0
-7 -4 -4 -10z"></path>
<path d="M2271 4034 c0 -11 3 -14 6 -6 3 7 2 16 -1 19 -3 4 -6 -2 -5 -13z"></path>
<path d="M2272 3960 c0 -19 2 -27 5 -17 2 9 2 25 0 35 -3 9 -5 1 -5 -18z"></path>
<path d="M860 5009 c-7 -11 -10 -23 -7 -25 2 -2 9 7 15 21 14 30 7 33 -8 4z"></path>
<path d="M4739 4773 l-34 -36 37 29 c21 16 38 32 38 37 0 12 -5 9 -41 -30z"></path>
<path d="M671 4619 c-6 -18 -9 -34 -7 -36 2 -2 9 10 15 28 6 18 9 34 7 36 -2
2 -9 -10 -15 -28z"></path>
<path d="M641 4544 c-6 -15 -9 -29 -7 -32 3 -2 10 8 16 23 14 36 7 43 -9 9z"></path>
<path d="M403 3525 c0 -38 2 -53 4 -32 2 20 2 52 0 70 -2 17 -4 1 -4 -38z"></path>
<path d="M393 3365 c0 -22 2 -30 4 -17 2 12 2 30 0 40 -3 9 -5 -1 -4 -23z"></path>
<path d="M403 3210 c0 -25 2 -35 4 -22 2 12 2 32 0 45 -2 12 -4 2 -4 -23z"></path>
<path d="M445 2835 c8 -57 28 -140 36 -149 12 -14 -1 61 -22 124 -10 30 -17
42 -14 25z"></path>
<path d="M480 2656 c0 -8 5 -18 10 -21 6 -3 10 1 10 9 0 8 -4 18 -10 21 -5 3
-10 -1 -10 -9z"></path>
<path d="M502 2600 c0 -14 2 -19 5 -12 2 6 2 18 0 25 -3 6 -5 1 -5 -13z"></path>
<path d="M511 2554 c0 -11 3 -14 6 -6 3 7 2 16 -1 19 -3 4 -6 -2 -5 -13z"></path>
<path d="M551 2424 c0 -11 3 -14 6 -6 3 7 2 16 -1 19 -3 4 -6 -2 -5 -13z"></path>
<path d="M4675 2430 c21 -38 48 -71 68 -82 15 -8 10 3 -17 33 -52 59 -61 67
-51 49z"></path>
<path d="M2640 2312 c-22 -22 -40 -45 -40 -52 0 -17 21 1 61 52 39 49 31 49
-21 0z"></path>
<path d="M597 2284 c8 -25 17 -44 19 -42 6 7 -18 88 -27 88 -4 0 -1 -20 8 -46z"></path>
<path d="M2364 2259 c-19 -22 -19 -22 4 -8 12 8 22 17 22 21 0 12 -6 9 -26
-13z"></path>
<path d="M634 2198 c9 -37 25 -78 30 -78 5 0 -24 92 -32 100 -3 3 -2 -7 2 -22z"></path>
<path d="M5120 4250 c0 -5 9 -10 20 -10 11 0 20 5 20 10 0 6 -9 10 -20 10 -11
0 -20 -4 -20 -10z"></path>
<path d="M5321 3574 c0 -11 3 -14 6 -6 3 7 2 16 -1 19 -3 4 -6 -2 -5 -13z"></path>
<path d="M5335 3148 c-2 -7 0 -29 4 -48 l9 -35 1 48 c1 45 -5 60 -14 35z"></path>
<path d="M3671 2616 c2 -2 21 -9 42 -14 33 -9 37 -9 26 4 -6 8 -25 14 -42 14
-17 0 -28 -2 -26 -4z"></path>
<path d="M3410 2599 c0 -5 5 -7 10 -4 6 3 10 8 10 11 0 2 -4 4 -10 4 -5 0 -10
-5 -10 -11z"></path>
<path d="M3756 2384 c-10 -25 1 -29 14 -5 6 12 7 21 1 21 -5 0 -12 -7 -15 -16z"></path>
<path d="M3768 2083 c6 -2 18 -2 25 0 6 3 1 5 -13 5 -14 0 -19 -2 -12 -5z"></path>
<path d="M4615 480 c3 -5 8 -10 11 -10 2 0 4 5 4 10 0 6 -5 10 -11 10 -5 0 -7
-4 -4 -10z"></path>
<path d="M2640 459 c0 -5 9 -9 19 -9 11 0 28 -3 38 -7 10 -3 15 -3 12 1 -11
12 -69 25 -69 15z"></path>
<path d="M2928 403 c6 -2 18 -2 25 0 6 3 1 5 -13 5 -14 0 -19 -2 -12 -5z"></path>
<path d="M2794 369 c10 -6 35 -12 55 -14 20 -1 82 -15 138 -29 56 -15 112 -26
125 -24 26 4 -208 63 -287 73 -40 5 -46 4 -31 -6z"></path>
<path d="M3170 290 c20 -13 63 -13 55 0 -3 6 -21 10 -38 10 -24 0 -28 -3 -17
-10z"></path>
<path d="M3278 283 c12 -2 32 -2 45 0 12 2 2 4 -23 4 -25 0 -35 -2 -22 -4z"></path>
<path d="M3400 271 c0 -5 33 -8 74 -8 41 1 72 5 70 9 -7 11 -144 10 -144 -1z"></path>
</g>
</svg>